<svg xmlns="http://www.w3.org/2000/svg" viewBox="0 0 477.11 159.11"><defs><style>.cls-1{fill:#fff;}.cls-2{fill:#ed3624;}</style></defs><title>bbdo30-logo</title><g id="Layer_2" data-name="Layer 2"><g id="Layer_1-2" data-name="Layer 1"><path class="cls-1" d="M347,128a33.89,33.89,0,0,1-.93-7.94c0-10.28,4.42-17.77,12.72-17.77,8.58,0,13.09,8.48,13.09,19.39V128h25.71v-6.13c0-12,4.6-21.93,13.45-21.93,9.2,0,13.53,8.75,13.53,19.58a37.25,37.25,0,0,1-1,8.48h26.51a77.78,77.78,0,0,0,.63-9.92c0-25-12-48.55-37.26-48.55-13.26,0-23.28,7.76-28.6,20.94-5.5-11.55-15.34-18.32-28.51-18.32-22,0-36.45,19.22-36.45,46.65a69,69,0,0,0,.61,9.2Z"/><path class="cls-1" d="M422.3,0c0,.44.05.87.05,1.32v.33c-.07,19.32-14,35.07-33.7,35.1S355.38,21.34,355.28,2V1.65c0-.55,0-1.1.05-1.65H323.66c-.28,6.47.34,30.9,17.16,47.81C352.69,59.75,369.63,67,389,67s36.12-7.25,48-19A64.2,64.2,0,0,0,455.88,2V1.65c0-.55,0-1.1,0-1.65Z"/><path class="cls-2" d="M311.24,106.56l.26-.27a66.27,66.27,0,0,0,17.08-44.12,53.67,53.67,0,0,0-7.89-27.34,59.21,59.21,0,0,0-11.91-16C296.93,7.54,280.11.77,260.48.78h-50v75c-3.31-6.74-9-11.58-16.16-15,7.07-5.27,12.67-13.39,12.59-25.52v-.34c0-10.26-4.21-19.06-11.77-25S177,.78,164.2.78H105.25v75c-3.3-6.74-9-11.59-16.17-15,7.08-5.27,12.67-13.39,12.61-25.52v-.34c0-10.26-4.22-19.06-11.78-25S71.75.78,59,.78H0V127.31H60.33c14,0,25.87-2.81,34.47-8.8a30.7,30.7,0,0,0,10.45-12.23v21h60.33c14,0,25.88-2.81,34.48-8.8a30.88,30.88,0,0,0,10.44-12.22v21h50c18.45,0,34.4-6.06,46.1-16.25.48-.42.94-.86,1.41-1.29.26-.24.53-.47.78-.72a.93.93,0,0,0,.14-.14C309.73,108.15,310.5,107.36,311.24,106.56ZM31.63,29.82H55c5.24,0,9,1.08,11.25,2.7s3.25,3.62,3.3,6.85v.34c-.07,3.7-1.28,5.63-3.82,7.31s-6.89,2.6-12.46,2.59H31.63ZM76.26,88c-.07,3.74-1.26,5.81-3.72,7.53s-6.67,2.72-12.21,2.7H31.63V77.45H59.47c6.48,0,10.82,1.23,13.28,3s3.45,3.88,3.51,7.25Zm60.62-58.21h23.36c5.22,0,9,1.08,11.23,2.7s3.26,3.62,3.31,6.85v.34c-.07,3.7-1.27,5.63-3.82,7.31s-6.89,2.6-12.44,2.59H136.88ZM181.51,88c-.06,3.74-1.26,5.81-3.73,7.53s-6.66,2.72-12.2,2.7h-28.7V77.45h27.84c6.48,0,10.82,1.23,13.28,3s3.46,3.88,3.51,7.25ZM294,64.39c-.16,20-13.15,33-33.53,33.18H242.83v-67h17.65C280.82,30.66,293.86,44,294,64.05Z"/><path class="cls-1" d="M476.75,107.16v5l-4.15,1.49v7.84l4.15,1.49v4.92L457,120.35v-5.62ZM468.34,120v-4.8l-6.65,2.4Z"/><path class="cls-1" d="M453.07,101.75a4.65,4.65,0,0,1-2.14-4c0-2,1-2.79,1-3.58a2.48,2.48,0,0,0-1-1.62l2.35-2.41a4.64,4.64,0,0,1,2.14,4c0,2-1,2.78-1,3.58a2.53,2.53,0,0,0,1,1.62ZM476.75,87v4.53l-12,9h12v4.71H457v-4.51l12-9H457V87Z"/><path class="cls-1" d="M466.88,63.38c5.89,0,10.23,4.32,10.23,10.41a10.24,10.24,0,1,1-20.47,0A10,10,0,0,1,466.88,63.38Zm0,15.91a5.5,5.5,0,1,0-5.73-5.5A5.38,5.38,0,0,0,466.88,79.29Z"/><path class="cls-1" d="M462.61,47a11,11,0,0,0-1.67,5.65c0,1.79.61,3.1,1.78,3.1s1.54-1.87,1.92-4.06l.14-.82c.66-3.83,2.45-6.24,5.68-6.24,4.69,0,6.65,4,6.65,8.27a14.75,14.75,0,0,1-2.51,8.69l-3.83-2.36a11,11,0,0,0,2.07-6.37c0-1.78-.6-3.13-1.83-3.13s-1.52,1.33-1.92,3.91l-.15,1c-.64,4.06-2.47,6.26-6,6.19-3.84-.07-6.26-3.34-6.26-8a15.16,15.16,0,0,1,2.08-8Z"/><path class="cls-1" d="M21.73,157a16.63,16.63,0,0,1-4.39,1.59,22.54,22.54,0,0,1-4.66.49,13.21,13.21,0,0,1-4.66-.8A10.37,10.37,0,0,1,4.33,156a10.08,10.08,0,0,1-2.42-3.58,13.1,13.1,0,0,1,0-9.39,10.17,10.17,0,0,1,2.42-3.58A10.66,10.66,0,0,1,8,137.22a13.21,13.21,0,0,1,4.66-.79,17.48,17.48,0,0,1,4.77.62,9.51,9.51,0,0,1,3.83,2.15l-3.36,3.66a6.6,6.6,0,0,0-2.19-1.52,7.73,7.73,0,0,0-3.05-.52,7,7,0,0,0-2.76.52,6.13,6.13,0,0,0-2.12,1.44A6.3,6.3,0,0,0,6.45,145a8.32,8.32,0,0,0,0,5.57,6.19,6.19,0,0,0,3.47,3.64,7,7,0,0,0,2.76.52,9.17,9.17,0,0,0,2.68-.35,11.14,11.14,0,0,0,1.8-.72v-3.5H13.29v-4.39h8.44Z"/><path class="cls-1" d="M47.16,150.24a10.5,10.5,0,0,1-.58,3.53,7.72,7.72,0,0,1-1.73,2.81A7.93,7.93,0,0,1,42,158.44a10.78,10.78,0,0,1-3.93.67,11,11,0,0,1-4-.67,7.93,7.93,0,0,1-2.85-1.86,7.7,7.7,0,0,1-1.72-2.81,10.25,10.25,0,0,1-.58-3.53V137h4.75v13.07a5.26,5.26,0,0,0,.32,1.86,4.59,4.59,0,0,0,.9,1.48,4.17,4.17,0,0,0,1.39,1,4.41,4.41,0,0,0,1.75.35,4.33,4.33,0,0,0,1.74-.35,4.09,4.09,0,0,0,1.37-1,4.26,4.26,0,0,0,.9-1.48,5.26,5.26,0,0,0,.32-1.86V137h4.76Z"/><path class="cls-1" d="M61.7,137h3.93L75,158.56H69.65L67.79,154H59.41l-1.8,4.57H52.37Zm1.82,6.28L60.9,150h5.28Z"/><path class="cls-1" d="M81.6,141.18H75.44V137H92.51v4.2H86.36v17.38H81.6Z"/><path class="cls-1" d="M98.15,137h14.66v4.39h-9.9v4h9.36v4.39h-9.36v4.39h10.45v4.39H98.15Z"/><path class="cls-1" d="M120.22,137h7.19l5,14.08h.06l5-14.08h7.17v21.58h-4.76V142h-.06l-5.67,16.55h-3.63L125,142H125v16.55h-4.76Z"/><path class="cls-1" d="M159.15,137h3.93l9.39,21.58H167.1L165.24,154h-8.38l-1.8,4.57h-5.24Zm1.82,6.28-2.62,6.7h5.28Z"/><path class="cls-1" d="M177.86,137h4.76v17.19h8.81v4.39H177.86Z"/><path class="cls-1" d="M204.2,137h3.93l9.39,21.58h-5.37L210.29,154h-8.38l-1.8,4.57h-5.24Zm1.83,6.28-2.62,6.7h5.27Z"/></g></g></svg>